<?xml version="1.0" encoding="utf-8"?>
<!-- Generator: Adobe Illustrator 21.0.2, SVG Export Plug-In . SVG Version: 6.00 Build 0)  -->
<svg version="1.1" baseProfile="tiny" id="ps_x5F_cc_x5F_app_x5F_RGB.svg"
	 xmlns="http://www.w3.org/2000/svg" xmlns:xlink="http://www.w3.org/1999/xlink" x="0px" y="0px" viewBox="0 0 240 234"
	 xml:space="preserve">
<rect fill-rule="evenodd" fill="#28092E" width="240" height="234"/>
<path fill-rule="evenodd" fill="#F9D9FF" d="M91.3,47.6c-2.7,0-5.3,1.4-6.6,3.7l-54.5,91.8c-1,1.7-1.2,3.6-0.7,5.4
	c0.5,1.9,1.7,3.4,3.4,4.4l93.4,52.1c1.1,0.6,2.4,0.9,3.6,0.9c2.7,0,5.2-1.4,6.6-3.7l54.5-91.8c1-1.7,1.3-3.6,0.8-5.5
	c-0.5-1.9-1.7-3.4-3.4-4.4L94.9,48.5C93.8,47.9,92.6,47.6,91.3,47.6z M129.9,209.9c-2,0-3.9-0.5-5.6-1.4l-93.4-52.1
	c-2.7-1.5-4.5-3.9-5.3-6.8c-0.8-2.9-0.4-5.9,1.2-8.5l54.5-91.8c2.1-3.5,5.9-5.6,10-5.6c2,0,3.9,0.5,5.6,1.4l93.4,52.1
	c2.7,1.5,4.5,3.9,5.3,6.8c0.8,2.9,0.4,5.9-1.2,8.5L140,204.3C137.9,207.7,134,209.9,129.9,209.9z"/>
<path fill-rule="evenodd" fill="#E873FF" d="M110.4,91.5c-19.1,0-34.6,15.5-34.6,34.6c0,19.1,15.5,34.6,34.6,34.6
	c19.1,0,34.6-15.5,34.6-34.6C145,107,129.5,91.5,110.4,91.5z M129.2,128.4l-30.5,16.4c-2,1.2-3.6,0.2-3.7-2.1v-32.9
	c0-2.3,1.6-3.3,3.7-2.1l30.5,16.5C131.3,125.4,131.3,127.3,129.2,128.4z"/>
</svg>
